<svg width="161" height="126" viewBox="0 0 161 126" fill="none" xmlns="http://www.w3.org/2000/svg">
<g clip-path="url(#clip0_42_48)">
<path d="M33.4402 0C24.2538 0 17.4559 7.89662 17.7603 16.4603C18.0528 24.6874 17.6729 35.3436 14.9416 44.0333C12.202 52.7483 7.56826 58.2688 0 58.9779V66.9801C7.56826 67.6892 12.202 73.2097 14.9416 81.9253C17.6729 90.615 18.0528 101.27 17.7603 109.498C17.4559 118.06 24.2538 125.958 33.4415 125.958H127.572C136.759 125.958 143.555 118.061 143.25 109.498C142.959 101.271 143.338 90.615 146.069 81.9253C148.811 73.2103 153.432 67.6886 161 66.9801V58.9779C153.432 58.2688 148.811 52.7483 146.07 44.0333C143.338 35.3449 142.959 24.688 143.25 16.4603C143.555 7.89785 136.759 0 127.572 0H33.4389H33.4402ZM109.153 77.5351C109.153 89.3272 100.197 96.4783 85.335 96.4783H60.0341C59.3105 96.4782 58.6166 96.1957 58.105 95.6932C57.5934 95.1906 57.3059 94.509 57.3059 93.7984V32.1596C57.3059 31.8077 57.3764 31.4591 57.5135 31.1339C57.6506 30.8087 57.8516 30.5131 58.105 30.2642C58.3584 30.0153 58.6592 29.8178 58.9903 29.6831C59.3215 29.5484 59.6764 29.4791 60.0348 29.4791H85.1904C97.583 29.4791 105.716 36.0724 105.716 46.1944C105.716 53.2992 100.245 59.6598 93.2743 60.7734V61.1446C102.764 62.1668 109.153 68.6206 109.153 77.5351ZM82.5754 37.9748H68.1502V57.9866H80.3006C89.6927 57.9866 94.8724 54.272 94.8724 47.6323C94.8724 41.4108 90.4179 37.9748 82.5754 37.9748ZM68.1502 65.927V87.9801H83.1068C92.8851 87.9801 98.066 84.1266 98.066 76.8841C98.066 69.6403 92.741 65.9258 82.4779 65.9258H68.1502V65.927Z" fill="#7E13F8"/>
</g>
<defs>
<clipPath id="clip0_42_48">
<rect width="161" height="126" fill="white"/>
</clipPath>
</defs>
</svg>
