<svg width="143" height="173" viewBox="0 0 143 173" fill="none" xmlns="http://www.w3.org/2000/svg">
<g clip-path="url(#clip0_42_30)">
<path d="M71.3258 172.563L13.2014 158.703L0.248291 33.9128H142.577L129.611 158.684L71.3258 172.563Z" fill="#264DE4"/>
<path d="M118.51 150.739L129.59 44.116H71.4128V161.954L118.51 150.739Z" fill="#2965F1"/>
<path d="M29.9425 90.399L31.5393 105.704H71.4127V90.399H29.9425ZM26.7334 59.4214L28.353 74.7264H71.4127V59.4214H26.7334ZM71.4127 130.148L71.3346 130.166L51.4908 125.563L50.2221 113.357H32.3354L34.8315 137.388L71.3307 146.091L71.4127 146.071V130.148Z" fill="#EBEBEB"/>
<path d="M33.7449 0H55.3249V7.75193H42.7697V15.5039H55.3261V23.2553H33.7449V0ZM59.6415 0H81.2221V6.74077H68.6663V8.08883H81.2221V23.5927H59.6421V16.5141H72.1979V15.166H59.641L59.6415 0ZM85.5387 0H107.119V6.74077H94.5635V8.08883H107.119V23.5927H85.5387V16.5141H98.0945V15.166H85.5393V0H85.5387Z" fill="black"/>
<path d="M112.769 90.399L115.986 59.4214H71.3514V74.7264H96.4586L94.8373 90.399H71.3514V105.704H93.2924L91.2237 125.553L71.3508 130.161V146.083L107.879 137.388L108.147 134.802L112.335 94.5088L112.769 90.399Z" fill="white"/>
</g>
<defs>
<clipPath id="clip0_42_30">
<rect width="142.826" height="173" fill="white"/>
</clipPath>
</defs>
</svg>
