<svg width="120" height="172" viewBox="0 0 120 172" fill="none" xmlns="http://www.w3.org/2000/svg">
<g clip-path="url(#clip0_42_41)">
<path d="M30 172C46.56 172 60 159.157 60 143.333V114.667H30C13.44 114.667 0 127.509 0 143.333C0 159.157 13.44 172 30 172Z" fill="#0ACF83"/>
<path d="M0 86C0 70.176 13.44 57.3333 30 57.3333H60V114.667H30C13.44 114.667 0 101.824 0 86Z" fill="#A259FF"/>
<path d="M0 28.6667C0 12.8427 13.44 0 30 0H60V57.3333H30C13.44 57.3333 0 44.4907 0 28.6667Z" fill="#F24E1E"/>
<path d="M60 0H90C106.56 0 120 12.8427 120 28.6667C120 44.4907 106.56 57.3333 90 57.3333H60V0Z" fill="#FF7262"/>
<path d="M120 86C120 101.824 106.56 114.667 90 114.667C73.44 114.667 60 101.824 60 86C60 70.176 73.44 57.3333 90 57.3333C106.56 57.3333 120 70.176 120 86Z" fill="#1ABCFE"/>
</g>
<defs>
<clipPath id="clip0_42_41">
<rect width="120" height="172" fill="white"/>
</clipPath>
</defs>
</svg>
