<svg width="159" height="159" viewBox="0 0 159 159" fill="none" xmlns="http://www.w3.org/2000/svg">
<path d="M79.5006 0C35.5992 0 0 36.4939 0 81.5129C0 117.527 22.7792 148.082 54.3674 158.86C58.3406 159.615 59.7995 157.092 59.7995 154.939C59.7995 152.995 59.725 146.574 59.6915 139.764C37.5743 144.694 32.9074 130.146 32.9074 130.146C29.2908 120.724 24.0798 118.218 24.0798 118.218C16.867 113.159 24.6239 113.264 24.6239 113.264C32.6068 113.838 36.8104 121.663 36.8104 121.663C43.9014 134.125 55.409 130.522 59.9455 128.439C60.6591 123.171 62.7193 119.575 64.9931 117.539C47.3348 115.479 28.7722 108.489 28.7722 77.2558C28.7722 68.3563 31.8776 61.0845 36.9632 55.3761C36.1377 53.323 33.4167 45.033 37.7333 33.8046C37.7333 33.8046 44.4094 31.614 59.602 42.1603C65.9434 40.3543 72.7444 39.4487 79.5006 39.4175C86.2569 39.4487 93.0634 40.3536 99.4166 42.1603C114.591 31.6146 121.257 33.8053 121.257 33.8053C125.585 45.0323 122.862 53.3236 122.037 55.3761C127.134 61.0845 130.219 68.3563 130.219 77.2558C130.219 108.563 111.62 115.457 93.9174 117.475C96.7689 120.004 99.3098 124.965 99.3098 132.57C99.3098 143.476 99.2179 152.254 99.2179 154.939C99.2179 157.108 100.649 159.65 104.679 158.849C136.249 148.059 159 117.516 159 81.5135C159 36.4939 123.406 0 79.5006 0ZM29.7759 116.117C29.6007 116.522 28.979 116.643 28.4132 116.365C27.8362 116.1 27.5126 115.547 27.6989 115.141C27.8703 114.724 28.4933 114.607 29.0684 114.887C29.646 115.153 29.9752 115.71 29.7759 116.117ZM33.6863 119.694C33.3074 120.055 32.5658 119.887 32.0627 119.318C31.5429 118.75 31.4454 117.99 31.8298 117.624C32.2211 117.264 32.9397 117.432 33.4608 118C33.9813 118.575 34.0819 119.33 33.6863 119.694ZM36.3694 124.272C35.8818 124.619 35.0856 124.293 34.5931 123.569C34.1061 122.844 34.1061 121.975 34.6036 121.626C35.0974 121.278 35.8818 121.591 36.3806 122.311C36.8663 123.048 36.8669 123.916 36.3694 124.272ZM40.9059 129.573C40.4705 130.066 39.5419 129.934 38.8625 129.261C38.1675 128.604 37.9743 127.672 38.4115 127.179C38.8525 126.685 39.786 126.823 40.4705 127.491C41.1599 128.147 41.3711 129.086 40.9059 129.573ZM46.7702 131.363C46.5777 132.001 45.6833 132.292 44.7833 132.021C43.884 131.741 43.2958 130.993 43.4772 130.348C43.6641 129.705 44.5622 129.403 45.469 129.694C46.3671 129.971 46.9572 130.713 46.7702 131.363ZM53.4433 132.122C53.4656 132.794 52.7023 133.351 51.757 133.364C50.8067 133.386 50.0372 132.842 50.0266 132.18C50.0266 131.502 50.7732 130.949 51.7241 130.933C52.6694 130.914 53.4433 131.454 53.4433 132.122ZM59.9989 131.865C60.1119 132.52 59.4554 133.194 58.5163 133.374C57.594 133.546 56.7394 133.141 56.622 132.491C56.5077 131.819 57.1767 131.145 58.0977 130.971C59.0381 130.804 59.879 131.198 59.9989 131.865Z" fill="#161614"/>
</svg>
