<svg width="131" height="171" viewBox="0 0 131 171" fill="none" xmlns="http://www.w3.org/2000/svg">
<g clip-path="url(#clip0_42_21)">
<path d="M130.772 33.5208L118.88 156.849L65.4202 170.568L12.1084 156.868L0.227783 33.5208H130.772Z" fill="#E44D26"/>
<path d="M65.5 160.082L108.698 148.996L118.86 43.606H65.5V160.082Z" fill="#F16529"/>
<path d="M42.3805 73.8626H65.5V58.7345H24.52L24.911 62.793L28.928 104.482H65.5V89.3539H43.8742L42.3805 73.8626ZM46.0639 112.046H29.6582L31.9476 135.8L65.4248 144.402L65.5 144.383V128.643L65.4284 128.661L47.2275 124.111L46.0639 112.046Z" fill="#EBEBEB"/>
<path d="M12.3733 0H20.6785V7.59553H28.276V0H36.5817V23.0012H28.2765V15.2991H20.679V23.0012H12.3738L12.3733 0ZM47.5028 7.62774H40.1924V0H63.1245V7.62774H55.8095V23.0012H47.5043V7.62774H47.5028ZM66.7639 0H75.4237L80.7507 8.082L86.0726 0H94.736V23.0012H86.4645V11.6005L80.7507 19.7787H80.6074L74.89 11.6005V23.0012H66.7639V0ZM98.8691 0H107.177V15.3985H118.856V23.0012H98.8686V0H98.8691Z" fill="black"/>
<path d="M65.4436 104.482H85.568L83.6705 124.102L65.4431 128.656V144.395L98.9469 135.8L99.1925 133.244L103.033 93.4162L103.432 89.3539H65.4436V104.482ZM65.4436 73.8256V73.8626H104.919L105.247 70.4624L105.992 62.793L106.382 58.7345H65.4436V73.8256Z" fill="white"/>
</g>
<defs>
<clipPath id="clip0_42_21">
<rect width="131" height="171" fill="white"/>
</clipPath>
</defs>
</svg>
