<svg width="143" height="140" viewBox="0 0 143 140" fill="none" xmlns="http://www.w3.org/2000/svg">
<g clip-path="url(#clip0_42_37)">
<path d="M0 0H143V139.098H0V0Z" fill="#F7DF1E"/>
<path d="M37.6002 116.24L48.543 109.798C50.6545 113.439 52.5749 116.52 57.1817 116.52C61.5974 116.52 64.3819 114.84 64.3819 108.304V63.8594H77.82V108.489C77.82 122.028 69.6612 128.19 57.7576 128.19C47.0074 128.19 40.7674 122.775 37.5996 116.239M85.1192 114.839L96.0609 108.677C98.9416 113.253 102.685 116.614 109.308 116.614C114.877 116.614 118.427 113.906 118.427 110.171C118.427 105.689 114.779 104.102 108.636 101.488L105.277 100.086C95.5816 96.0725 89.1506 91.0302 89.1506 80.386C89.1506 70.5817 96.8295 63.1118 108.829 63.1118C117.372 63.1118 123.515 66.0067 127.93 73.5696L117.467 80.1061C115.163 76.0913 112.668 74.5042 108.828 74.5042C104.892 74.5042 102.396 76.9319 102.396 80.1061C102.396 84.0275 104.892 85.6157 110.651 88.0434L114.011 89.4436C125.434 94.2061 131.865 99.0609 131.865 109.984C131.865 121.75 122.362 128.192 109.596 128.192C97.1172 128.192 89.0539 122.403 85.1186 114.84" fill="black"/>
</g>
<defs>
<clipPath id="clip0_42_37">
<rect width="143" height="139.098" fill="white"/>
</clipPath>
</defs>
</svg>
