<svg width="170" height="170" viewBox="0 0 170 170" fill="none" xmlns="http://www.w3.org/2000/svg">
<g clip-path="url(#clip0_1_2)">
<path d="M141.777 0H28.2227C12.6357 0 0 12.939 0 28.9V140.828C0 156.789 12.6357 169.728 28.2227 169.728H141.777C157.364 169.728 170 156.789 170 140.828V28.9C170 12.939 157.364 0 141.777 0Z" fill="#001E36"/>
<path d="M38.2792 119.024V44.402C38.2792 43.858 38.5077 43.5846 38.9639 43.5846L39.6857 43.5826L40.9195 43.569L42.6341 43.5343L48.3783 43.4098L54.5375 43.2929C56.7036 43.2548 58.8512 43.2344 60.9802 43.2344C66.7575 43.2344 71.6231 43.9742 75.5776 45.4532C79.1447 46.6888 82.3979 48.7233 85.1003 51.4087C87.3912 53.7365 89.1615 56.5456 90.2893 59.6421C91.3561 62.6554 91.8967 65.8373 91.8863 69.0424C91.8863 75.2719 90.4792 80.41 87.6662 84.4574C84.9149 88.4059 81.0772 91.4257 76.6428 93.1314L76.2623 93.2742C71.6318 95.0429 66.5039 95.6821 60.8799 95.7222L60.006 95.725L58.7091 95.7182L58.055 95.7086L57.3259 95.691L56.8863 95.6733L56.6193 95.659L55.9625 95.6345L55.1597 95.6175L53.9511 95.6087L53.6821 95.608V118.907C53.7021 119.05 53.6894 119.195 53.6448 119.332C53.6003 119.469 53.5253 119.593 53.4256 119.695C53.326 119.797 53.2045 119.874 53.0709 119.92C52.9372 119.966 52.795 119.979 52.6555 119.958H39.0781C38.5448 119.958 38.2792 119.648 38.2792 119.024ZM53.6828 57.598V81.9366C54.593 82.0118 55.5056 82.0508 56.4188 82.0536H60.1827C62.7777 82.0446 65.3576 81.649 67.8413 80.8792L68.3367 80.7208C70.5962 80.0335 72.6152 78.6956 74.1532 76.8665C75.5823 75.1407 76.3227 72.7627 76.3738 69.732L76.3771 69.3926C76.4369 67.1337 75.8632 64.9046 74.723 62.97C73.5246 61.099 71.7926 59.6514 69.7624 58.8241C67.1115 57.769 64.2798 57.2727 61.4371 57.3648L59.9907 57.3689L59.0783 57.377L58.2077 57.3886L56.9792 57.4131L56.0827 57.4389L55.6172 57.4566L54.995 57.4865L54.4651 57.5198L54.1629 57.5443L53.902 57.5702L53.7871 57.5838L53.6828 57.598ZM135.98 77.5112C133.991 76.4643 131.881 75.678 129.699 75.1706L129.195 75.0591C126.795 74.4952 124.345 74.1847 121.884 74.1322L121.269 74.1248C119.826 74.0847 118.385 74.2618 116.993 74.6504C116.106 74.8523 115.318 75.3693 114.768 76.1097C114.396 76.7021 114.199 77.3912 114.198 78.0953C114.219 78.7781 114.459 79.4347 114.882 79.9632C115.487 80.6881 116.215 81.2955 117.03 81.7564L117.277 81.8904C118.903 82.7869 120.579 83.5861 122.295 84.284C126.122 85.596 129.78 87.3803 133.186 89.5975C135.506 91.0973 137.427 93.1641 138.774 95.6121C139.907 97.9297 140.475 100.494 140.428 103.085C140.496 106.508 139.541 109.869 137.691 112.72C135.71 115.614 132.958 117.863 129.764 119.201C126.42 120.706 122.312 121.483 117.441 121.534L116.935 121.537C113.916 121.568 110.901 121.298 107.933 120.729L107.299 120.603C104.8 120.134 102.367 119.349 100.057 118.267C99.8248 118.144 99.6286 117.961 99.4883 117.735C99.3481 117.509 99.2689 117.249 99.2588 116.982V104.254C99.2451 104.13 99.2644 104.005 99.3147 103.892C99.365 103.779 99.4444 103.682 99.5443 103.611C99.6422 103.554 99.7547 103.53 99.8667 103.54C99.9786 103.55 100.085 103.596 100.171 103.669C102.9 105.317 105.862 106.519 108.952 107.231C111.676 107.93 114.47 108.303 117.277 108.341C119.938 108.341 121.895 107.99 123.15 107.29C123.717 107.024 124.197 106.596 124.531 106.057C124.865 105.518 125.039 104.892 125.032 104.254C125.032 103.243 124.462 102.269 123.322 101.334C122.844 100.943 122.158 100.516 121.265 100.056L120.838 99.841L120.383 99.6214L120.144 99.5098L119.643 99.2827C119.556 99.2439 119.469 99.2054 119.382 99.1671L118.837 98.9332L118.554 98.8142L117.965 98.5728L117.66 98.4504L117.027 98.2008L116.365 97.9472C112.784 96.671 109.389 94.9032 106.272 92.6922C104.043 91.1046 102.207 89.005 100.912 86.5613C99.7908 84.2601 99.2238 81.7174 99.2588 79.1459C99.2524 76.0561 100.081 73.0247 101.653 70.3875C103.446 67.4839 106.02 65.1719 109.066 63.7316C112.411 62.0201 116.592 61.1633 121.61 61.1619C124.55 61.1378 127.486 61.3526 130.392 61.8045C132.496 62.0778 134.553 62.6476 136.505 63.4977C136.819 63.5902 137.072 63.8275 137.189 64.1403C137.267 64.4252 137.305 64.7197 137.304 65.0162V76.8108C137.32 77.0896 137.189 77.3568 136.962 77.5112C136.809 77.5888 136.641 77.6292 136.471 77.6292C136.301 77.6292 136.133 77.5888 135.98 77.5112Z" fill="#31A8FF"/>
</g>
<defs>
<clipPath id="clip0_1_2">
<rect width="170" height="170" fill="white"/>
</clipPath>
</defs>
</svg>
